<svg width="884" height="735" viewBox="0 0 884 735" fill="none" xmlns="http://www.w3.org/2000/svg">
<g clip-path="url(#clip0)">
<path opacity="0.1" d="M513.395 97.506C456.747 95.5366 402.795 77.252 351.276 57.2431C299.757 37.2342 248.728 15.0633 193.436 4.4637C157.874 -2.35474 117.199 -3.31754 88.5515 15.7461C60.9715 34.1269 52.0611 65.7683 47.2733 95.1602C43.6672 117.27 41.549 140.543 51.4221 161.235C58.2843 175.607 70.4507 187.686 78.8709 201.454C108.167 249.35 87.4574 308.413 55.7198 355.18C40.84 377.123 23.5532 398.068 12.0608 421.403C0.568378 444.738 -4.74457 471.513 5.3124 495.338C15.2731 518.971 39.0194 536.687 64.7439 549.159C116.989 574.499 178.53 581.746 238.583 585.851C371.477 594.945 505.071 591.006 638.315 587.068C687.628 585.606 737.152 584.127 785.66 576.503C812.601 572.267 840.408 565.553 859.971 549.326C884.794 528.73 890.947 493.859 874.308 468.03C846.404 424.712 769.274 413.955 749.747 367.469C739.016 341.875 750.036 313.376 765.642 289.639C799.113 238.732 855.209 194.067 858.159 135.878C860.19 95.913 833.222 55.8864 791.524 36.9716C747.821 17.1553 687.208 19.6411 654.98 52.4553C621.763 86.2411 563.417 99.239 513.395 97.506Z" fill="#00BFA6"/>
<path opacity="0.1" d="M423.189 719.577C570.13 719.577 689.248 703.463 689.248 683.585C689.248 663.707 570.13 647.594 423.189 647.594C276.249 647.594 157.13 663.707 157.13 683.585C157.13 703.463 276.249 719.577 423.189 719.577Z" fill="#00BFA6"/>
<path d="M291.477 576.433C291.477 576.433 309.858 573.492 320.886 586.481C320.886 586.481 312.799 592.853 295.398 584.031L291.477 576.433Z" fill="#00BFA6"/>
<path d="M289.516 576.144C289.516 576.144 277.788 590.656 283.538 606.648C283.538 606.648 293.096 602.823 294.138 583.339L289.516 576.144Z" fill="#00BFA6"/>
<path d="M279.013 552.415C279.013 552.415 286.365 538.936 315.775 557.807C315.775 557.807 311.853 566.875 298.864 566.14C285.875 565.405 282.4 559.523 279.013 552.415Z" fill="#00BFA6"/>
<path d="M277.079 551.444C277.079 551.444 261.822 549.693 260.343 584.617C260.343 584.617 270.015 586.63 276.886 575.575C283.757 564.521 280.912 558.341 277.079 551.444Z" fill="#00BFA6"/>
<path d="M268.186 523.592C268.186 523.592 276.764 499.811 307.897 516.722C307.897 516.722 300.79 538.542 271.372 531.68L268.186 523.592Z" fill="#00BFA6"/>
<path d="M258.628 488.047C258.628 488.047 274.803 464.03 303.486 486.297C303.486 486.297 293.438 508.844 261.078 496.59L258.628 488.047Z" fill="#00BFA6"/>
<path d="M255.197 454.227C255.197 454.227 274.068 432.17 302.462 454.227C302.462 454.227 284.562 473.588 255.197 459.863V454.227Z" fill="#00BFA6"/>
<path d="M252.256 421.386C252.256 421.386 271.372 398.34 298.584 420.161C298.584 420.161 277.009 440.502 252.256 426.778V421.386Z" fill="#00BFA6"/>
<path d="M253.971 392.213C253.971 392.213 274.103 362.558 299.565 382.655C299.565 382.655 277.989 408.152 253.971 397.85V392.213Z" fill="#00BFA6"/>
<path d="M258.628 358.147C258.628 358.147 279.95 328.738 304.711 351.285C304.711 351.285 279.459 376.773 258.628 363.539V358.147Z" fill="#00BFA6"/>
<path d="M265.744 327.696C265.744 327.696 290.978 300.064 313.009 311.066C313.009 311.066 286.698 340.414 264.641 335.022L265.744 327.696Z" fill="#00BFA6"/>
<path d="M274.558 298.838C274.558 298.838 303.731 265.009 320.641 276.282C320.641 276.282 299.18 302.541 272.501 305.21L274.558 298.838Z" fill="#00BFA6"/>
<path d="M287.293 265.35C287.293 265.35 312.799 237.709 331.425 244.571C331.425 244.571 309.613 273.254 283.871 273.989L287.293 265.35Z" fill="#00BFA6"/>
<path d="M298.829 234.032C298.829 234.032 327.013 207.564 339.267 212.22C339.267 212.22 318.926 241.63 297.604 239.914L298.829 234.032Z" fill="#00BFA6"/>
<path d="M310.103 205.113C310.103 205.113 334.366 173.498 347.6 175.949C347.6 175.949 332.895 204.133 310.103 208.334V205.113Z" fill="#00BFA6"/>
<path d="M322.331 166.146C322.331 166.146 343.784 141.9 355.364 141.962C355.364 141.962 338.436 174.347 321.455 174.049L322.331 166.146Z" fill="#00BFA6"/>
<path d="M329.587 140.159L350.296 89.6724C350.296 89.6724 351.337 135.31 326.943 149.524L329.587 140.159Z" fill="#00BFA6"/>
<path d="M337.989 84.482C337.989 84.482 341.421 42.3286 339.215 38.8975C339.215 38.8975 354.033 73.9087 337.849 103.108L337.989 84.482Z" fill="#00BFA6"/>
<path d="M267.389 523.024C267.389 523.024 245.901 509.711 232.002 542.28C232.002 542.28 251.118 554.971 269.91 531.33L267.389 523.024Z" fill="#00BFA6"/>
<path d="M257.945 486.691C257.945 486.691 231.599 474.673 218.811 508.678C218.811 508.678 239.17 522.682 260.343 495.286L257.945 486.691Z" fill="#00BFA6"/>
<path d="M253.971 456.248C253.971 456.248 235.1 434.191 206.706 456.248C206.706 456.248 224.597 475.61 253.971 461.885V456.248Z" fill="#00BFA6"/>
<path d="M251.617 421.386C251.617 421.386 232.492 398.34 205.288 420.161C205.288 420.161 226.855 440.502 251.617 426.778V421.386Z" fill="#00BFA6"/>
<path d="M253.971 393.053C253.971 393.053 240.562 359.836 211.415 374.121C211.415 374.121 227.17 403.583 252.79 398.568L253.971 393.053Z" fill="#00BFA6"/>
<path d="M260.317 357.981C260.317 357.981 246.995 324.186 217.428 339.854C217.428 339.854 235.529 370.83 259.004 363.206L260.317 357.981Z" fill="#00BFA6"/>
<path d="M268.58 327.871C268.58 327.871 263.328 290.812 238.864 287.495C238.864 287.495 244.054 326.567 265.315 334.541L268.58 327.871Z" fill="#00BFA6"/>
<path d="M275.188 298.899C275.188 298.899 273.131 254.26 252.868 252.711C252.868 252.711 253.551 286.584 272.904 305.228L275.188 298.899Z" fill="#00BFA6"/>
<path d="M289.403 264.072C289.403 264.072 283.354 226.96 264.02 222.417C264.02 222.417 266.418 258.365 287.486 273.184L289.403 264.072Z" fill="#00BFA6"/>
<path d="M301.123 234.304C301.123 234.304 300.912 195.634 289.096 189.953C289.096 189.953 281.77 224.964 297.7 239.24L301.123 234.304Z" fill="#00BFA6"/>
<path d="M311.005 204.658C311.005 204.658 309.341 164.833 297.114 159.222C297.114 159.222 292.921 190.732 309.166 207.258L311.005 204.658Z" fill="#00BFA6"/>
<path d="M324.046 169.297C324.046 169.297 323.967 136.911 315.232 129.314C315.232 129.314 306.549 164.798 319.486 175.809L324.046 169.297Z" fill="#00BFA6"/>
<path d="M328.554 138.566L320.064 84.6571C320.064 84.6571 308.51 128.832 328.956 148.29L328.554 138.566Z" fill="#00BFA6"/>
<path d="M330.217 84.9897C330.217 84.9897 308.396 48.7618 308.851 44.7268C308.851 44.7268 311.162 82.714 338.611 101.62L330.217 84.9897Z" fill="#00BFA6"/>
<path d="M332.773 74.2938C332.773 74.2938 312.186 22.8186 302.873 18.6522C302.873 18.6522 332.282 33.602 334.488 72.8233L332.773 74.2938Z" fill="#00BFA6"/>
<path d="M321.342 174.33L319.932 173.901C337.307 117.244 341.648 81.121 332.143 72.0706L333.158 71.0027C343.224 80.5521 339.145 116.255 321.342 174.33Z" fill="#444053"/>
<path d="M273.499 306.952L271.424 306.217C273.262 301.026 275.249 295.757 277.332 290.558C295.468 245.359 310.908 203.319 320.808 171.038L322.619 170.163C312.703 202.505 297.543 246.164 279.381 291.416C277.306 296.562 275.328 301.814 273.499 306.952Z" fill="#444053"/>
<path d="M317.341 618.841C317.061 618.525 288.895 586.823 269.271 532.678C257.764 500.99 251.353 467.677 250.277 433.981C248.93 391.854 257.77 344.817 272.912 302.094L274.558 304.02C240.571 399.916 254.076 482.096 271.984 531.593C291.416 585.239 319.25 616.609 319.53 616.915L317.341 618.841Z" fill="#444053"/>
<path d="M568.38 253.674H564.634C563.527 253.674 562.63 254.571 562.63 255.678V315.582C562.63 316.689 563.527 317.587 564.634 317.587H568.38C569.487 317.587 570.385 316.689 570.385 315.582V255.678C570.385 254.571 569.487 253.674 568.38 253.674Z" fill="#3A3768"/>
<path d="M307.267 203.599H306.926C305.819 203.599 304.921 204.496 304.921 205.603V222.636C304.921 223.743 305.819 224.641 306.926 224.641H307.267C308.374 224.641 309.272 223.743 309.272 222.636V205.603C309.272 204.496 308.374 203.599 307.267 203.599Z" fill="#3A3768"/>
<path d="M307.661 242.129H306.768C305.661 242.129 304.764 243.026 304.764 244.133V276.746C304.764 277.853 305.661 278.75 306.768 278.75H307.661C308.768 278.75 309.665 277.853 309.665 276.746V244.133C309.665 243.026 308.768 242.129 307.661 242.129Z" fill="#3A3768"/>
<path d="M307.503 291.565H306.847C305.74 291.565 304.843 292.462 304.843 293.569V326.497C304.843 327.604 305.74 328.501 306.847 328.501H307.503C308.61 328.501 309.508 327.604 309.508 326.497V293.569C309.508 292.462 308.61 291.565 307.503 291.565Z" fill="#3A3768"/>
<path d="M532.687 134.067H341.508C322.66 134.067 307.381 149.346 307.381 168.194V627.199C307.381 646.047 322.66 661.327 341.508 661.327H532.687C551.535 661.327 566.814 646.047 566.814 627.199V168.194C566.814 149.346 551.535 134.067 532.687 134.067Z" fill="#3A3768"/>
<path d="M530.218 147.765H500.459V151.345C500.459 153.573 500.02 155.78 499.167 157.838C498.314 159.897 497.064 161.767 495.487 163.342C493.911 164.918 492.04 166.167 489.981 167.019C487.922 167.871 485.716 168.309 483.487 168.308H388.843C386.615 168.309 384.408 167.871 382.349 167.019C380.29 166.167 378.419 164.918 376.843 163.342C375.267 161.767 374.017 159.897 373.164 157.838C372.311 155.78 371.872 153.573 371.872 151.345V147.765H344.011C338.547 147.765 333.306 149.936 329.442 153.8C325.578 157.664 323.407 162.904 323.407 168.369V626.989C323.407 632.454 325.578 637.695 329.442 641.559C333.306 645.423 338.547 647.593 344.011 647.593H530.218C535.683 647.593 540.924 645.423 544.788 641.559C548.652 637.695 550.822 632.454 550.822 626.989V168.404C550.827 165.695 550.298 163.012 549.264 160.508C548.231 158.004 546.714 155.729 544.8 153.812C542.886 151.895 540.613 150.374 538.111 149.337C535.609 148.299 532.927 147.765 530.218 147.765Z" fill="#00BFA6"/>
<path d="M444.913 149.813H415.46C413.59 149.813 412.073 151.329 412.073 153.2V153.778C412.073 155.649 413.59 157.165 415.46 157.165H444.913C446.784 157.165 448.301 155.649 448.301 153.778V153.2C448.301 151.329 446.784 149.813 444.913 149.813Z" fill="#E6E8EC"/>
<path d="M457.955 157.664C460.261 157.664 462.13 155.795 462.13 153.489C462.13 151.183 460.261 149.314 457.955 149.314C455.65 149.314 453.78 151.183 453.78 153.489C453.78 155.795 455.65 157.664 457.955 157.664Z" fill="#E6E8EC"/>
<path d="M656.635 110.942C656.635 110.942 582.937 106.495 591.619 158.137C591.619 158.137 589.869 167.266 598.166 171.406C598.166 171.406 598.298 167.581 605.729 168.885C608.374 169.324 611.062 169.453 613.738 169.27C617.347 169.033 620.781 167.629 623.523 165.27C623.523 165.27 644.241 156.71 652.294 122.854C652.294 122.854 658.254 115.467 658.018 113.568L645.58 118.881C645.58 118.881 649.834 127.852 646.456 135.31C646.456 135.31 646.053 119.204 643.663 119.554C643.182 119.625 637.204 122.662 637.204 122.662C637.204 122.662 644.512 138.285 638.998 149.647C638.998 149.647 641.09 130.39 634.919 123.791L626.167 128.902C626.167 128.902 634.709 145.043 628.915 158.216C628.915 158.216 630.403 138.014 624.32 130.145L616.39 136.334C616.39 136.334 624.416 152.237 619.523 163.161C619.523 163.161 618.884 139.651 614.674 137.874C614.674 137.874 607.733 144.001 606.674 146.504C606.674 146.504 612.171 158.058 608.757 164.15C608.757 164.15 606.665 148.482 604.95 148.395C604.95 148.395 598.035 158.776 597.317 165.901C597.317 165.901 597.615 155.318 603.278 147.415C603.278 147.415 596.591 148.561 592.687 152.894C592.687 152.894 593.764 145.559 604.985 144.911C604.985 144.911 610.7 137.034 612.223 136.561C612.223 136.561 601.072 135.625 594.306 138.627C594.306 138.627 600.258 131.703 614.272 134.854L622.105 128.456C622.105 128.456 607.418 126.452 601.186 128.666C601.186 128.666 608.355 122.539 624.215 127.003L632.74 121.909C632.74 121.909 620.215 119.213 612.757 120.158C612.757 120.158 620.635 115.913 635.243 120.517L641.37 117.778C641.37 117.778 632.197 115.975 629.51 115.686C626.823 115.397 626.683 114.662 626.683 114.662C632.494 113.693 638.461 114.356 643.917 116.579C643.917 116.579 656.854 111.756 656.635 110.942Z" fill="#00BFA6"/>
<path d="M581.037 87.9744C581.037 87.9744 547.777 85.97 551.663 109.305C551.663 109.305 550.884 113.428 554.621 115.301C554.621 115.301 554.682 113.55 558.044 114.154C559.237 114.355 560.451 114.414 561.658 114.329C563.291 114.221 564.844 113.582 566.079 112.509C566.079 112.509 575.444 108.64 579.085 93.3399C579.085 93.3399 581.772 90.0051 581.667 89.1473L576.048 91.5456C576.048 91.5456 577.965 95.5981 576.459 98.9679C576.459 98.9679 576.276 91.6944 575.199 91.8607C574.98 91.8607 572.276 93.2699 572.276 93.2699C572.276 93.2699 575.584 100.333 573.09 105.463C573.09 105.463 574.035 96.7622 571.243 93.7775L567.287 96.1233C567.287 96.1233 571.147 103.414 568.529 109.366C568.529 109.366 569.203 100.237 566.455 96.6835L562.875 99.4843C562.875 99.4843 566.499 106.67 564.293 111.607C564.293 111.607 563.995 100.981 562.096 100.176C562.096 100.176 558.963 102.942 558.481 104.08C558.481 104.08 560.967 109.331 559.426 112.053C559.426 112.053 558.481 104.972 557.676 104.937C557.676 104.937 554.551 109.629 554.227 112.815C554.384 109.844 555.313 106.966 556.923 104.465C555.12 104.806 553.456 105.667 552.135 106.942C552.135 106.942 552.626 103.624 557.693 103.336C557.693 103.336 560.319 99.7732 560.967 99.5544C560.967 99.5544 555.925 99.1342 552.871 100.491C552.871 100.491 555.558 97.3662 561.886 98.7841L565.387 95.8957C565.387 95.8957 558.744 95.0204 555.934 95.992C555.934 95.992 559.173 93.2261 566.341 95.2392L570.192 92.9373C570.192 92.9373 564.529 91.7206 561.16 92.1583C561.16 92.1583 564.722 90.2414 571.322 92.3158L574.079 91.0817C574.079 91.0817 569.93 90.2677 568.713 90.1364C567.497 90.0051 567.435 89.6725 567.435 89.6725C570.063 89.2354 572.76 89.5384 575.225 90.5477C575.225 90.5477 581.142 88.342 581.037 87.9744Z" fill="#00BFA6"/>
<path opacity="0.1" d="M527.671 197.971H346.532V582.429H527.671V197.971Z" fill="black"/>
<path d="M522.122 689.756C522.122 689.756 517.851 679.812 515.943 675.226C514.866 672.6 513.045 672.163 511.654 672.224L511.733 671.349L512.074 667.208L512.144 666.333C515.444 665.642 518.271 665.099 518.271 665.099L516.214 558.91C516.214 558.91 515.339 557.79 513.221 551.033C512.17 547.663 507.094 543.523 502.35 540.223C501.606 539.706 500.879 539.216 500.161 538.744C501.889 537.296 503.704 535.958 505.597 534.735C508.293 533.168 509.185 524.231 509.185 524.231L508.739 525.107C509.186 524.231 508.739 501.413 508.739 501.413L507.164 477.728C507.164 477.728 506.043 449.57 497.29 442.191C488.538 434.813 477.483 432.231 477.483 432.231L471.356 430.655L460.065 427.758C459.75 427.242 459.443 426.699 459.189 426.13C459.076 425.911 458.971 425.684 458.866 425.456C462.315 423.014 465.129 419.78 467.071 416.026C469.012 412.272 470.026 408.107 470.025 403.88C470.027 402.461 469.913 401.045 469.684 399.644C469.684 399.381 469.588 399.11 469.535 398.848C470.463 398.212 471.341 397.507 472.161 396.738C473.498 395.673 474.591 394.333 475.365 392.808C475.486 392.509 475.586 392.202 475.662 391.889C475.662 391.802 475.662 391.714 475.715 391.618C475.767 391.521 475.794 391.154 475.82 390.918C475.82 390.83 475.82 390.742 475.82 390.655C475.82 390.401 475.82 390.139 475.82 389.885C475.82 389.823 475.82 389.762 475.82 389.692C475.82 389.403 475.776 389.114 475.732 388.817C475.736 388.8 475.736 388.782 475.732 388.764C475.572 387.748 475.308 386.751 474.945 385.788C474.069 383.53 472.931 381.412 472.52 379.005C472.012 376.16 472.599 373.053 471.242 370.497C470.679 369.531 469.909 368.701 468.987 368.067C468.066 367.433 467.016 367.011 465.912 366.83C463.69 366.487 461.417 366.747 459.33 367.583C458.309 368.068 457.209 368.364 456.082 368.458C455.263 368.41 454.459 368.215 453.71 367.88C451.112 366.861 448.643 365.536 446.358 363.933C444.713 362.635 442.955 361.487 441.106 360.502C440.177 360.017 439.152 359.743 438.105 359.701C437.058 359.659 436.014 359.848 435.049 360.256C431.811 361.902 431.198 366.488 428.187 368.51C426.113 369.911 423.408 369.771 420.905 369.858C418.401 369.946 415.566 370.567 414.331 372.738C413.456 374.243 413.666 376.038 413.833 377.797L413.885 378.392C413.885 378.602 413.885 378.821 413.938 379.031C414.075 381.282 413.738 383.536 412.948 385.648C411.741 388.852 409.447 392.012 409.526 395.276C409.533 395.796 409.601 396.313 409.727 396.817C409.796 397.069 409.878 397.317 409.972 397.561C410.454 398.643 410.995 399.698 411.592 400.721L411.671 400.861C411.732 400.983 411.793 401.106 411.846 401.228C411.898 401.351 412.003 401.561 412.064 401.727C412.126 401.894 412.134 401.894 412.161 401.972C412.187 402.051 412.274 402.296 412.318 402.462C412.463 402.957 412.525 403.471 412.502 403.985C412.399 404.649 412.344 405.319 412.336 405.99C412.339 406.326 412.457 406.651 412.67 406.91C412.884 407.17 413.18 407.349 413.509 407.417C413.87 407.408 414.221 407.298 414.524 407.101C415.309 406.654 416.056 406.141 416.756 405.57C416.756 405.85 416.756 406.13 416.808 406.445C417.418 412.71 420.239 418.553 424.765 422.927C424.765 423.198 424.765 423.478 424.703 423.802C424.642 424.126 424.66 424.432 424.642 424.756L414.839 427.837C414.839 427.837 414.892 428.012 414.997 428.31L413.964 428.721C408.878 430.778 403.215 433.334 400.047 435.653C398.646 436.668 397.368 437.5 396.222 438.191C392.059 440.739 388.867 444.606 387.154 449.176L387.023 449.509C386.147 451.513 381.859 465.15 381.859 465.15C381.859 465.15 378.716 472.747 378.261 477.667C378.261 477.667 373.097 493.973 374.445 504.704C374.445 504.704 370.401 520.126 371.977 522.577C371.977 522.577 370.366 529.212 377.438 535.89C376.922 536.205 376.362 536.547 375.775 536.923C370.296 540.372 362.392 545.965 361.044 550.28C358.952 556.993 358.051 558.157 358.051 558.157L355.933 664.18C355.933 664.18 358.76 664.723 362.06 665.405L362.13 666.281L362.471 670.412L362.55 671.287C361.158 671.226 359.338 671.707 358.261 674.298C356.344 678.876 352.134 688.81 352.134 688.81C352.134 688.81 342.707 697.563 348.423 705.686C348.675 706.057 348.968 706.397 349.298 706.701C353.403 710.43 362.156 708.04 368.379 705.607C371.542 704.257 374.268 702.058 376.257 699.252C376.507 698.924 376.824 698.651 377.185 698.451C377.547 698.25 377.946 698.127 378.357 698.088C379.785 697.858 381.13 697.271 382.27 696.382C382.956 695.881 383.51 695.221 383.885 694.458C384.26 693.696 384.445 692.854 384.423 692.005C384.419 691.961 384.419 691.918 384.423 691.874L383.872 679.419C383.872 679.419 383.198 670.718 381.053 671.279L380.502 671.41L380.353 670.535L380.064 668.845L379.915 667.97H381.106C381.106 667.97 381.403 658.132 385.001 650.394C388.598 642.657 390.961 580.153 390.961 580.153C390.961 580.153 435.487 580.88 436.975 576.704C437.85 576.704 438.804 576.704 439.714 576.643C441.211 580.818 483.233 581.02 483.233 581.02C483.233 581.02 485.623 643.593 489.212 651.34C489.969 652.999 490.598 654.714 491.093 656.469C492.223 660.528 492.901 664.699 493.115 668.907H494.306L494.148 669.782L493.859 671.462L493.711 672.338L493.142 672.206C491.015 671.655 490.341 680.355 490.341 680.355L489.772 692.889C489.727 693.734 489.895 694.577 490.258 695.342C490.622 696.106 491.171 696.767 491.855 697.266C493.014 698.175 494.384 698.777 495.837 699.016C496.249 699.049 496.65 699.169 497.012 699.369C497.374 699.568 497.69 699.841 497.938 700.172C499.928 702.975 502.655 705.174 505.816 706.526C512.538 709.152 522.201 711.716 525.79 706.614C531.549 698.473 522.122 689.756 522.122 689.756ZM408.948 533.658H409.053H408.948ZM479.277 497.877C479.277 497.877 480.406 502.122 482.419 504.354C484.433 506.586 483.435 520.45 483.435 520.45C482.643 520.5 481.857 520.627 481.089 520.827C479.54 511.61 478.113 501.378 479.277 497.877Z" fill="url(#paint0_linear)"/>
<path d="M382.462 672.591L364.861 674.342L364.37 668.451L364.029 664.399L363.548 658.473L380.178 659.348L381.5 666.955L381.78 668.609H381.788L382.462 672.591Z" fill="#8E6F7F"/>
<path d="M510.647 659.357L510.166 665.274L509.833 669.327L509.334 675.217L491.724 673.467L492.424 669.484L492.695 667.839L494.017 660.232L510.647 659.357Z" fill="#8E6F7F"/>
<path d="M491.995 574.114L439.653 576.573C437.272 576.69 434.892 576.69 432.511 576.573L382.506 574.123V534.507H491.995V574.114Z" fill="#5F5570"/>
<path opacity="0.1" d="M491.995 574.114L439.653 576.573C437.272 576.69 434.892 576.69 432.511 576.573L382.506 574.123V534.507H491.995V574.114Z" fill="black"/>
<path d="M424.966 427.776C424.966 427.776 407.53 433.631 400.966 438.445C399.6 439.443 398.34 440.266 397.237 440.94C393.183 443.44 390.08 447.223 388.423 451.688C388.379 451.811 388.336 451.916 388.292 452.012C387.416 453.982 383.259 467.33 383.259 467.33C383.259 467.33 380.195 474.769 379.758 479.583C379.32 484.397 404.703 497.308 404.703 497.308C404.703 497.308 392.449 524.004 397.92 530.787C403.39 537.571 483.26 540.853 481.509 530.787C479.759 520.722 476.695 504.091 478.227 499.496L505.361 479.802C505.361 479.802 504.266 452.231 495.732 445.01C487.198 437.789 476.476 435.163 476.476 435.163L459.487 430.787C459.487 430.787 453.5 445.666 446.936 447.636C440.371 449.605 425.99 440.511 424.966 427.776Z" fill="#EAEAF2"/>
<path opacity="0.1" d="M449.456 452.835C449.456 452.835 442.051 459.014 438.165 452.835C438.165 452.835 434.664 463.286 438.165 466.787L438.034 467.496L437.412 470.612L429.307 538.008L435.977 549.518L448.117 534.288L447.137 471.268L446.699 467.653L446.594 466.778H448.669C448.669 466.778 454.174 457.264 449.456 452.835Z" fill="black"/>
<path opacity="0.1" d="M451.207 452.835C451.207 452.835 443.802 459.014 439.916 452.835C439.916 452.835 436.415 463.286 439.916 466.787L439.784 467.496L439.163 470.612L431.058 538.008L437.727 549.518L449.868 534.288L448.887 471.268L448.45 467.653L448.345 466.778H450.419C450.419 466.778 455.925 457.264 451.207 452.835Z" fill="black"/>
<path d="M448.992 533.422L436.852 548.626L430.165 537.177L438.279 469.745L438.9 466.629L439.04 465.912L440.134 463.076L447.469 465.912L447.574 466.787L448.012 470.402L448.992 533.422Z" fill="#BC8487"/>
<path opacity="0.1" d="M381.5 666.946C377.723 666.922 373.956 666.538 370.252 665.799C368.423 665.344 366.13 664.836 364.038 664.39L363.548 658.464L380.178 659.34L381.5 666.946Z" fill="black"/>
<path d="M436.984 576.652C435.531 580.74 392.134 580.022 392.134 580.022C392.134 580.022 389.806 641.291 386.305 648.88C382.804 656.469 382.506 666.088 382.506 666.088C382.506 666.088 374.926 666.088 370.252 664.924C365.578 663.76 357.998 662.298 357.998 662.298L360.046 558.359C360.046 558.359 360.922 557.265 362.961 550.691C364.274 546.464 371.977 540.984 377.307 537.562C380.283 535.689 382.506 534.464 382.506 534.464L408.397 535.514L424.38 536.162C424.38 536.162 438.445 572.564 436.984 576.652Z" fill="#5F5570"/>
<path opacity="0.1" d="M382.471 672.583L364.86 674.333L364.362 668.443C365.021 668.461 365.672 668.604 366.278 668.863C369.491 671.173 378.672 669.335 381.78 668.6L382.471 672.583Z" fill="black"/>
<path d="M385.797 689.607C385.818 690.438 385.637 691.261 385.269 692.007C384.902 692.752 384.359 693.397 383.688 693.887C382.58 694.756 381.27 695.331 379.88 695.559C379.479 695.593 379.09 695.713 378.738 695.909C378.387 696.105 378.081 696.374 377.841 696.697C375.895 699.441 373.23 701.594 370.138 702.92C364.073 705.301 355.539 707.638 351.539 703.988C351.208 703.694 350.915 703.362 350.663 702.999C345.088 695.016 354.278 686.473 354.278 686.473C354.278 686.473 358.427 676.74 360.291 672.259C360.493 671.678 360.815 671.145 361.236 670.697C361.657 670.248 362.167 669.893 362.735 669.655C363.302 669.417 363.913 669.302 364.529 669.316C365.144 669.33 365.749 669.474 366.305 669.738C369.806 672.259 380.423 669.843 382.497 669.309C384.572 668.775 385.237 677.283 385.237 677.283L385.797 689.476C385.793 689.519 385.793 689.563 385.797 689.607Z" fill="#BC8487"/>
<path opacity="0.1" d="M510.656 659.348L510.166 665.265C508.074 665.712 505.789 666.219 503.942 666.674C500.241 667.414 496.478 667.801 492.704 667.83L494.026 660.224L510.656 659.348Z" fill="black"/>
<path d="M516.214 663.174C516.214 663.174 508.634 664.635 503.96 665.799C499.286 666.963 491.706 666.964 491.706 666.964C491.706 666.964 491.417 657.335 487.916 649.756C484.415 642.176 482.078 580.897 482.078 580.897C482.078 580.897 441.132 580.661 439.671 576.573C438.209 572.486 457.518 537.186 457.518 537.186L469.29 536.573L491.706 535.383C491.706 535.383 496.082 537.763 500.669 540.976C505.255 544.188 510.236 548.267 511.26 551.567C513.299 558.14 514.174 559.234 514.174 559.234L516.214 663.174Z" fill="#5F5570"/>
<path opacity="0.1" d="M509.833 669.318L509.343 675.208L491.724 673.458L492.424 669.475C495.531 670.219 504.678 672.049 507.916 669.738C508.523 669.479 509.173 669.336 509.833 669.318Z" fill="black"/>
<path d="M507.916 670.613C508.473 670.348 509.079 670.203 509.695 670.188C510.311 670.173 510.923 670.288 511.492 670.526C512.06 670.764 512.572 671.119 512.994 671.569C513.415 672.018 513.737 672.552 513.938 673.134C515.794 677.616 519.951 687.357 519.951 687.357C519.951 687.357 529.142 695.891 523.566 703.874C520.065 708.881 510.647 706.369 504.1 703.795C501.006 702.475 498.339 700.32 496.398 697.572C496.156 697.248 495.849 696.979 495.496 696.783C495.143 696.587 494.752 696.468 494.35 696.434C492.928 696.187 491.591 695.584 490.463 694.684C489.801 694.193 489.269 693.547 488.917 692.801C488.564 692.056 488.401 691.236 488.441 690.412L488.993 678.158C488.993 678.158 489.649 669.642 491.724 670.176C493.798 670.71 504.415 673.134 507.916 670.613Z" fill="#BC8487"/>
<path d="M462.673 435.163L445.001 453.894L444.511 454.419L443.872 454.043C440.178 451.855 421.701 440.703 423.285 437.351C424.161 435.443 424.677 431.469 424.948 428.047C424.948 427.636 425.001 427.233 425.036 426.839C425.211 424.134 425.255 422.034 425.255 422.034C425.255 422.034 458.515 416.344 457.202 422.034C456.669 424.336 457.465 426.927 458.594 429.194C458.927 429.85 459.294 430.471 459.653 431.058C460.537 432.513 461.547 433.886 462.673 435.163Z" fill="#FFC4D0"/>
<path opacity="0.1" d="M458.594 429.194C453.632 432.85 447.531 434.621 441.382 434.19C435.233 433.759 429.439 431.153 425.036 426.839C425.211 424.134 425.255 422.034 425.255 422.034C425.255 422.034 458.515 416.344 457.202 422.034C456.695 424.353 457.465 426.927 458.594 429.194Z" fill="black"/>
<path d="M469.159 407.408C469.255 414.145 466.729 420.656 462.114 425.565C457.499 430.474 451.157 433.398 444.427 433.718C437.696 434.039 431.105 431.731 426.045 427.282C420.985 422.833 417.852 416.592 417.307 409.876C417.237 409.059 417.202 408.236 417.202 407.408C417.139 403.958 417.764 400.53 419.04 397.324C420.316 394.119 422.219 391.199 424.636 388.737C427.054 386.275 429.937 384.319 433.119 382.984C436.301 381.649 439.717 380.962 443.167 380.962C446.618 380.962 450.034 381.649 453.215 382.984C456.397 384.319 459.281 386.275 461.698 388.737C464.116 391.199 466.018 394.119 467.295 397.324C468.571 400.53 469.196 403.958 469.132 407.408H469.159Z" fill="#FFC4D0"/>
<path opacity="0.1" d="M468.835 403.259C468.159 403.81 467.375 404.212 466.534 404.439C465.692 404.667 464.812 404.715 463.951 404.581C459.942 403.705 458.568 397.578 454.472 397.158C450.375 396.738 447.653 402.41 443.504 402.296C441.754 402.252 440.178 401.106 438.568 400.309C435.749 398.918 431.11 398.069 428.064 399.119C423.487 400.686 421.938 404.922 419.014 408.292C418.515 408.866 417.967 409.396 417.377 409.876C417.307 409.059 417.272 408.236 417.272 407.408C417.213 400.84 419.644 394.493 424.077 389.646C428.509 384.799 434.614 381.812 441.161 381.286C447.708 380.76 454.211 382.735 459.361 386.812C464.511 390.889 467.924 396.766 468.914 403.259H468.835Z" fill="black"/>
<path d="M438.568 399.443C440.178 400.231 441.719 401.386 443.504 401.43C447.644 401.535 450.349 395.837 454.463 396.283C458.577 396.729 459.933 402.804 463.96 403.705C466.664 404.318 469.211 402.296 471.233 400.414C472.54 399.374 473.606 398.063 474.358 396.572C475.233 394.401 474.778 391.898 473.964 389.692C473.15 387.487 472.004 385.368 471.601 383.049C471.111 380.265 471.68 377.22 470.358 374.716C469.811 373.77 469.061 372.958 468.162 372.337C467.263 371.717 466.237 371.304 465.159 371.128C462.994 370.792 460.778 371.043 458.743 371.854C457.752 372.335 456.681 372.632 455.583 372.729C454.782 372.68 453.997 372.488 453.264 372.16C450.732 371.163 448.329 369.867 446.104 368.3C444.509 367.027 442.801 365.902 441.001 364.939C440.097 364.465 439.098 364.197 438.078 364.156C437.058 364.115 436.041 364.302 435.102 364.703C431.951 366.314 431.347 370.83 428.415 372.782C426.393 374.147 423.758 374.007 421.325 374.104C418.892 374.2 416.073 374.786 414.918 376.913C413.885 378.742 414.401 380.992 414.533 383.084C414.663 385.287 414.332 387.493 413.561 389.561C412.204 393.185 409.447 396.756 410.428 400.502C411.067 402.961 413.272 405.001 413.141 407.504C413.038 408.15 412.982 408.802 412.975 409.456C412.978 409.785 413.093 410.103 413.301 410.358C413.51 410.613 413.799 410.789 414.121 410.856C414.472 410.852 414.814 410.742 415.102 410.541C416.557 409.727 417.862 408.671 418.962 407.417C421.92 404.038 423.452 399.81 428.029 398.244C431.119 397.22 435.749 398.042 438.568 399.443Z" fill="#8E6F7F"/>
<path d="M468.686 552.232L463.96 553.518L453.045 556.521C450.519 558.402 447.676 559.816 444.651 560.696C437.972 562.385 433.657 558.709 430.069 553.019C428.625 550.744 429.351 548.923 431.242 547.496C435.793 544.057 447.049 542.936 450.498 543.391C452.763 543.576 455.039 543.222 457.141 542.359C458.633 541.816 460.072 541.136 461.439 540.328L468.686 552.232Z" fill="#FFC4D0"/>
<path opacity="0.1" d="M468.686 552.232L463.96 553.518C462.603 549.431 460.371 544.302 457.176 542.332C458.668 541.789 460.107 541.11 461.474 540.302L468.686 552.232Z" fill="black"/>
<path opacity="0.1" d="M500.651 540.976C498.691 542.56 497.028 544.004 497.028 544.004C497.028 544.004 474.271 551.138 469.894 560.109C469.894 560.109 466.393 542.604 458.953 542.385C458.953 542.385 466.962 539.243 469.273 536.555L491.706 535.383C491.706 535.383 496.082 537.763 500.651 540.976Z" fill="black"/>
<path d="M500.31 472.362L505.343 479.802L506.875 502.997C506.875 502.997 507.312 525.317 506.875 526.192L507.312 525.317C507.312 525.317 506.437 534.07 503.811 535.601C501.185 537.133 495.277 542.254 495.277 542.254C495.277 542.254 472.52 549.387 468.144 558.359C468.144 558.359 464.643 540.853 457.203 540.634C457.203 540.634 468.362 536.258 468.144 533.413C468.144 533.413 476.678 525.754 477.334 523.785C477.991 521.816 482.253 521.597 482.253 521.597C482.253 521.597 483.242 508.03 481.273 505.842C479.303 503.654 478.209 499.496 478.209 499.496L500.31 472.362Z" fill="#EAEAF2"/>
<path opacity="0.1" d="M444.651 560.669C437.973 562.359 433.657 558.683 430.069 552.993C428.625 550.718 429.351 548.897 431.242 547.47L431.924 547.742C431.924 547.742 443.959 552.958 444.651 560.669Z" fill="black"/>
<path d="M441.885 567.663C434.008 578.604 419.347 563.392 418.253 560.328C417.859 559.216 416.362 558.227 414.638 557.431C412.45 556.475 410.179 555.722 407.854 555.181L420.878 544.573L423.373 545.571L431.049 548.643C431.049 548.643 449.763 556.722 441.885 567.663Z" fill="#FFC4D0"/>
<path opacity="0.1" d="M423.373 545.571C416.196 548.984 414.664 553.895 414.62 557.431C412.433 556.475 410.162 555.722 407.837 555.181L420.861 544.573L423.373 545.571Z" fill="black"/>
<path opacity="0.1" d="M411.907 564.486C411.907 564.486 390.9 547.855 380.834 540.634C379.575 539.737 378.403 538.723 377.333 537.606C380.309 535.733 382.532 534.507 382.532 534.507L408.423 535.558C409.115 536.757 409.526 537.571 409.526 537.571L423.53 546.761C406.655 552.232 411.907 564.486 411.907 564.486Z" fill="black"/>
<path d="M383.898 477.177L379.74 479.584C379.74 479.584 374.707 495.557 376.02 506.061C376.02 506.061 372.082 521.159 373.613 523.566C373.613 523.566 371.644 531.663 381.71 538.884C391.775 546.105 412.782 562.735 412.782 562.735C412.782 562.735 407.53 550.481 424.38 545.011L410.375 535.82C410.375 535.82 405.675 526.49 401.185 524.442C401.185 524.442 397.683 520.94 399.872 518.533C402.06 516.126 403.81 513.501 403.81 511.094C403.81 508.687 404.686 497.308 404.686 497.308L407.312 485.054L383.898 477.177Z" fill="#EAEAF2"/>
<path opacity="0.1" d="M447.574 466.778H439.04C438.989 466.73 438.942 466.677 438.9 466.621L439.04 465.903L440.135 463.067L447.469 465.903L447.574 466.778Z" fill="black"/>
<path d="M450.332 451.96C450.332 451.96 442.927 458.139 439.04 451.96C439.04 451.96 435.539 462.41 439.04 465.912H449.544C449.544 465.912 455.049 456.389 450.332 451.96Z" fill="#BC8487"/>
<path opacity="0.1" d="M460.345 431.662L471.373 434.507C471.373 434.507 460.922 461.64 458.62 461.64L445.386 455.294L460.345 431.662Z" fill="black"/>
<path opacity="0.1" d="M462.673 435.163L445.001 453.894L444.511 454.419L443.872 454.043L459.321 430.48L459.697 431.102C460.569 432.54 461.565 433.898 462.673 435.163Z" fill="black"/>
<path d="M459.469 430.787L470.498 433.631C470.498 433.631 460.047 460.765 457.745 460.765L444.511 454.419L459.469 430.787Z" fill="#EAEAF2"/>
<path opacity="0.1" d="M424.091 428.651L414.533 431.662C414.533 431.662 423.942 460.108 426.568 461.64L443.636 455.294L424.091 428.651Z" fill="black"/>
<path opacity="0.1" d="M445.001 453.894L444.511 454.419C444.511 454.419 421.535 441.071 423.285 437.351C424.161 435.443 424.677 431.469 424.948 428.047V427.513L445.001 453.894Z" fill="black"/>
<path d="M424.966 427.776L415.408 430.787C415.408 430.787 424.817 459.233 427.443 460.765L444.511 454.419L424.966 427.776Z" fill="#EAEAF2"/>
<path opacity="0.1" d="M402.2 474.244C402.2 474.244 407.959 475.268 407.854 481.247C407.749 487.225 410.226 473.518 410.226 473.518L402.2 474.244Z" fill="black"/>
<path opacity="0.1" d="M403.513 492.625C403.513 492.625 401.911 501.667 403.513 509.842C405.115 518.017 404.975 520.783 406.218 521.221C407.46 521.658 403.513 492.625 403.513 492.625Z" fill="black"/>
<path opacity="0.1" d="M477.036 491.75C476.577 491.808 476.136 491.966 475.744 492.214C475.352 492.461 475.02 492.791 474.769 493.181C474.519 493.57 474.357 494.01 474.295 494.469C474.233 494.928 474.273 495.395 474.411 495.837C475.146 499.496 477.036 491.75 477.036 491.75Z" fill="black"/>
<path opacity="0.1" d="M376.966 522.385C376.966 522.385 395.723 520.783 398.848 524.135C401.972 527.488 376.966 522.385 376.966 522.385Z" fill="black"/>
<path opacity="0.1" d="M485.789 523.654C485.789 523.654 499.505 521.965 502.717 524.301L485.789 523.654Z" fill="black"/>
<path opacity="0.1" d="M491.338 525.886C491.338 525.886 499.505 526.175 501.404 527.199L491.338 525.886Z" fill="black"/>
<path opacity="0.1" d="M492.94 528.818C492.94 528.818 500.38 528.529 501.404 529.693L492.94 528.818Z" fill="black"/>
<path opacity="0.1" d="M388.02 569.956C388.02 569.956 394.392 573.273 393.745 576.661C393.097 580.048 388.02 569.956 388.02 569.956Z" fill="black"/>
<path opacity="0.1" d="M382.506 571.567C382.506 571.567 392.231 584.179 390.909 588.337C389.587 592.495 382.506 571.567 382.506 571.567Z" fill="black"/>
<path opacity="0.1" d="M486.743 573.659C486.743 573.659 481.929 577.624 482.06 580.897L486.743 573.659Z" fill="black"/>
<path opacity="0.1" d="M375.583 651.795C375.583 651.795 375.583 655.515 382.471 660.985L375.583 651.795Z" fill="black"/>
<path opacity="0.1" d="M497.168 643.042C497.168 643.042 496.433 650.779 489.728 654.788L497.168 643.042Z" fill="black"/>
<g opacity="0.1">
<path opacity="0.1" d="M414.533 380.423C414.533 379.819 414.428 379.198 414.375 378.585C414.264 379.921 414.305 381.266 414.498 382.594C414.558 381.872 414.569 381.146 414.533 380.423Z" fill="black"/>
<path opacity="0.1" d="M413.141 404.878C413.272 402.34 411.067 400.3 410.428 397.876C410.395 397.758 410.372 397.638 410.358 397.517C410.158 398.505 410.182 399.525 410.428 400.502C410.944 402.506 412.502 404.222 412.992 406.165C413.036 405.71 413.123 405.298 413.141 404.878Z" fill="black"/>
<path opacity="0.1" d="M474.358 393.946C473.603 395.436 472.538 396.746 471.233 397.789C469.194 399.67 466.664 401.692 463.96 401.08C459.942 400.204 458.559 394.077 454.463 393.657C450.367 393.237 447.645 398.909 443.504 398.795C441.754 398.751 440.178 397.605 438.568 396.808C435.749 395.417 431.119 394.568 428.065 395.618C423.487 397.185 421.938 401.421 418.997 404.791C417.899 406.045 416.597 407.105 415.145 407.924C414.852 408.118 414.508 408.224 414.156 408.231C413.937 408.201 413.729 408.112 413.557 407.973C413.384 407.834 413.252 407.651 413.176 407.443V407.504C413.073 408.153 413.017 408.808 413.01 409.465C413.015 409.792 413.131 410.109 413.339 410.362C413.548 410.614 413.836 410.789 414.156 410.856C414.508 410.85 414.852 410.744 415.145 410.55C416.597 409.731 417.899 408.671 418.997 407.417C421.955 404.047 423.487 399.81 428.065 398.244C431.154 397.193 435.785 398.042 438.568 399.434C440.178 400.231 441.719 401.377 443.504 401.421C447.645 401.526 450.349 395.828 454.463 396.283C458.577 396.738 459.942 402.795 463.96 403.705C466.664 404.318 469.211 402.296 471.233 400.414C472.538 399.372 473.603 398.062 474.358 396.572C474.846 395.307 474.976 393.932 474.734 392.598C474.66 393.06 474.534 393.512 474.358 393.946Z" fill="black"/>
</g>
<path opacity="0.1" d="M354.287 686.482C354.287 686.482 361.438 684.276 364.405 688.46L354.287 686.482Z" fill="black"/>
<path opacity="0.1" d="M519.952 687.357C519.952 687.357 508.109 686.666 508.573 689.87L519.952 687.357Z" fill="black"/>
<path opacity="0.1" d="M756.391 680.872C769.409 680.872 779.962 679.089 779.962 676.889C779.962 674.69 769.409 672.906 756.391 672.906C743.373 672.906 732.819 674.69 732.819 676.889C732.819 679.089 743.373 680.872 756.391 680.872Z" fill="#00BFA6"/>
<path opacity="0.1" d="M79.7292 713.555C92.7473 713.555 103.301 711.772 103.301 709.572C103.301 707.373 92.7473 705.59 79.7292 705.59C66.7112 705.59 56.158 707.373 56.158 709.572C56.158 711.772 66.7112 713.555 79.7292 713.555Z" fill="#00BFA6"/>
<path opacity="0.1" d="M170.907 734.92C183.925 734.92 194.479 733.137 194.479 730.938C194.479 728.738 183.925 726.955 170.907 726.955C157.889 726.955 147.336 728.738 147.336 730.938C147.336 733.137 157.889 734.92 170.907 734.92Z" fill="#00BFA6"/>
<path d="M704.793 725.52C724.231 725.52 739.988 722.855 739.988 719.568C739.988 716.28 724.231 713.616 704.793 713.616C685.355 713.616 669.598 716.28 669.598 719.568C669.598 722.855 685.355 725.52 704.793 725.52Z" fill="#00BFA6"/>
<path d="M719.349 709.835C720.953 708.523 722.122 706.756 722.701 704.767C723.139 702.762 722.281 700.39 720.355 699.611C718.202 698.789 715.9 700.285 714.158 701.791C712.417 703.296 710.412 705.021 708.128 704.697C709.303 703.633 710.184 702.283 710.682 700.779C711.181 699.274 711.281 697.665 710.972 696.11C710.87 695.466 710.595 694.861 710.176 694.36C708.986 693.082 706.815 693.624 705.388 694.64C700.837 697.835 699.568 704.023 699.541 709.581C699.077 707.576 699.471 705.485 699.454 703.454C699.436 701.423 698.885 699.078 697.143 698.001C696.068 697.424 694.861 697.14 693.642 697.178C691.594 697.099 689.318 697.309 687.918 698.806C686.167 700.662 686.64 703.778 688.145 705.808C689.651 707.839 691.953 709.143 694.071 710.552C695.765 711.563 697.21 712.942 698.298 714.587C698.43 714.817 698.535 715.061 698.613 715.314H711.401C714.285 713.853 716.958 712.01 719.349 709.835Z" fill="#00BFA6"/>
<path d="M172.124 633.064C172.124 633.064 176.938 639.357 169.909 648.819C162.881 658.281 157.086 666.324 159.406 672.25C159.406 672.25 170.014 654.613 178.662 654.368C187.31 654.123 181.621 643.672 172.124 633.064Z" fill="#00BFA6"/>
<path opacity="0.1" d="M172.124 633.064C172.544 633.673 172.874 634.339 173.104 635.042C181.524 644.933 186.015 654.167 177.918 654.394C170.382 654.613 161.34 668.093 159.17 671.497C159.24 671.76 159.327 672.014 159.424 672.276C159.424 672.276 170.032 654.639 178.68 654.394C187.327 654.149 181.621 643.672 172.124 633.064Z" fill="black"/>
<path d="M181.06 641.081C181.06 643.296 180.815 645.09 180.509 645.09C180.203 645.09 179.958 643.296 179.958 641.081C179.958 638.867 180.264 639.909 180.57 639.909C180.877 639.909 181.06 638.867 181.06 641.081Z" fill="#FFD037"/>
<path d="M184.133 643.725C182.19 644.784 180.491 645.423 180.351 645.151C180.211 644.88 181.656 643.803 183.599 642.744C185.542 641.685 184.78 642.455 184.92 642.744C185.06 643.033 186.076 642.666 184.133 643.725Z" fill="#FFD037"/>
<path d="M146.732 633.064C146.732 633.064 141.918 639.357 148.946 648.819C155.975 658.281 161.769 666.324 159.45 672.25C159.45 672.25 148.85 654.613 140.194 654.368C131.537 654.123 137.218 643.672 146.732 633.064Z" fill="#00BFA6"/>
<path opacity="0.1" d="M146.732 633.064C146.311 633.673 145.978 634.339 145.743 635.042C137.323 644.933 132.841 654.167 140.929 654.394C148.474 654.613 157.515 668.093 159.686 671.497C159.614 671.762 159.527 672.022 159.423 672.276C159.423 672.276 148.824 654.639 140.167 654.394C131.511 654.149 137.218 643.672 146.732 633.064Z" fill="black"/>
<path d="M137.787 641.081C137.787 643.296 138.04 645.09 138.347 645.09C138.653 645.09 138.898 643.296 138.898 641.081C138.898 638.867 138.592 639.909 138.286 639.909C137.979 639.909 137.787 638.867 137.787 641.081Z" fill="#FFD037"/>
<path d="M134.723 643.725C136.666 644.784 138.355 645.423 138.504 645.151C138.653 644.88 137.191 643.803 135.248 642.744C133.305 641.685 134.075 642.455 133.927 642.744C133.778 643.033 132.78 642.666 134.723 643.725Z" fill="#FFD037"/>
<path d="M139.318 671.454C139.318 671.454 152.763 671.033 156.824 668.154C160.885 665.274 177.507 661.817 178.505 666.447C179.502 671.077 198.715 689.458 183.538 689.581C168.36 689.703 148.264 687.217 144.22 684.758C140.176 682.298 139.318 671.454 139.318 671.454Z" fill="#A8A8A8"/>
<path opacity="0.2" d="M183.8 687.97C168.623 688.093 148.526 685.607 144.483 683.147C141.41 681.265 140.176 674.535 139.765 671.436H139.318C139.318 671.436 140.194 682.272 144.211 684.74C148.229 687.209 168.351 689.686 183.529 689.563C187.905 689.563 189.419 687.97 189.341 685.659C188.728 687.077 187.056 687.944 183.8 687.97Z" fill="black"/>
</g>
<defs>
<linearGradient id="paint0_linear" x1="346.532" y1="534.604" x2="527.671" y2="534.604" gradientUnits="userSpaceOnUse">
<stop stop-color="#808080" stop-opacity="0.25"/>
<stop offset="0.54" stop-color="#808080" stop-opacity="0.12"/>
<stop offset="1" stop-color="#808080" stop-opacity="0.1"/>
</linearGradient>
<clipPath id="clip0">
<rect width="883.63" height="734.92" fill="white"/>
</clipPath>
</defs>
</svg>
