<svg width="30" height="30" viewBox="0 0 30 30" fill="none" xmlns="http://www.w3.org/2000/svg">
<g clip-path="url(#clip0)">
<path d="M20.5 10C20.37 10 20.234 10.06 20.143 10.152L14.645 15.65C14.398 15.897 14.181 15.984 13.995 15.985C13.811 15.985 13.609 15.905 13.353 15.65L10.86 13.16C10.406 12.685 9.68505 13.417 10.154 13.868L12.647 16.358C13.039 16.75 13.5 16.988 13.997 16.985C14.492 16.982 14.971 16.739 15.351 16.359L20.851 10.859C21.161 10.554 20.959 9.999 20.501 9.999L20.5 10ZM14.72 0.05C14.588 0.108 14.39 0.233 14.158 0.375C13.925 0.517 13.471 0.805 13.028 1.047C12.14 1.527 11.028 2.002 10 2.002C8.90005 2.002 8.07705 1.772 7.31205 1.525C6.54805 1.278 5.83505 1 5.00005 1C4.22605 1 3.47405 1.122 2.89305 1.603C2.31005 2.085 2.00005 2.916 2.00005 4V12C2.00005 13.18 1.81005 17.267 4.06405 21.248C5.39105 23.59 7.68405 25.743 9.84205 27.34C10.922 28.138 11.966 28.795 12.852 29.258C13.737 29.721 14.402 30 15 30C15.6 30 16.263 29.72 17.148 29.258C18.034 28.795 19.078 28.138 20.158 27.34C22.316 25.743 24.608 23.59 25.936 21.248C28.19 17.268 28 13.18 28 12V4C28 2.916 27.69 2.085 27.107 1.603C26.527 1.123 25.774 1 25 1C24.166 1 23.452 1.278 22.687 1.523C21.924 1.77 21.1 2 20 2C18.97 2 17.852 1.526 16.965 1.045C16.521 0.805 16.075 0.533 15.835 0.373C15.592 0.213 15.392 0.113 15.273 0.048C15.133 -0.016 14.865 -0.016 14.719 0.048L14.72 0.05ZM15 1.09C15.092 1.09 15.173 1.14 15.303 1.222C15.601 1.409 16.008 1.666 16.486 1.925C17.442 2.443 18.686 3 20 3C21.242 3 22.2 2.73 22.992 2.477C23.782 2.222 24.398 2 25 2C25.662 2 26.16 2.12 26.47 2.375C26.78 2.631 27 3.095 27 4V12C27 13.277 27.167 17.045 25.064 20.755C23.854 22.893 21.644 24.995 19.562 26.537C18.522 27.307 17.512 27.94 16.686 28.373C15.858 28.806 15.151 29 15 29C14.85 29 14.142 28.806 13.314 28.373C12.487 27.94 11.479 27.308 10.437 26.537C8.35505 24.997 6.14705 22.893 4.93705 20.755C2.83205 17.045 3.00005 13.277 3.00005 12V4C3.00005 3.095 3.22005 2.63 3.53005 2.375C3.84005 2.12 4.33705 2 5.00005 2C5.60205 2 6.21705 2.222 7.00805 2.477C7.79805 2.73 8.75805 3 10 3C11.313 3 12.55 2.442 13.506 1.923C13.984 1.663 14.391 1.407 14.689 1.22C14.819 1.14 14.907 1.087 14.999 1.087L15 1.09Z" fill="#00BFA6"/>
</g>
<defs>
<clipPath id="clip0">
<rect width="30" height="30" fill="white"/>
</clipPath>
</defs>
</svg>
