<svg width="60" height="45" viewBox="0 0 60 45" fill="none" xmlns="http://www.w3.org/2000/svg">
<path d="M53.8849 0H5.19229C4.39301 0 3.64474 0.196502 2.96777 0.520389L29.4232 26.9758L35.3528 21.2773C35.3528 21.2773 35.3532 21.2767 35.3533 21.2765C35.3535 21.2763 35.3539 21.276 35.3539 21.276L56.1103 0.52085C55.4332 0.196732 54.6844 0 53.8849 0Z" fill="white"/>
<path d="M58.5577 2.96533L39.0249 22.4971L58.557 42.0292C58.8809 41.3522 59.0774 40.6039 59.0774 39.8047V5.18904C59.0774 4.39023 58.8813 3.64207 58.5577 2.96533Z" fill="white"/>
<path d="M0.520388 2.96533C0.196501 3.6423 0 4.39057 0 5.18985V39.8055C0 40.6043 0.196271 41.3527 0.519927 42.0294L20.0527 22.4977L0.520388 2.96533Z" fill="white"/>
<path d="M36.5772 24.9465L30.6468 30.6458C30.3088 30.9838 29.8659 31.1529 29.4232 31.1529C28.9804 31.1529 28.5375 30.9838 28.1995 30.6458L22.4999 24.9463L2.9668 44.4782C3.64388 44.8023 4.39261 44.999 5.19212 44.999H53.8848C54.684 44.999 55.4323 44.8025 56.1093 44.4786L36.5772 24.9465Z" fill="white"/>
</svg>
