<svg width="45" height="45" viewBox="0 0 45 45" fill="none" xmlns="http://www.w3.org/2000/svg">
<path d="M44.9878 44.9993V44.9975H44.9991V28.494C44.9991 20.4204 43.261 14.2012 33.8224 14.2012C29.285 14.2012 26.2401 16.6911 24.997 19.0517H24.8657V14.9549H15.9165V44.9975H25.2351V30.1215C25.2351 26.2047 25.9776 22.4173 30.8281 22.4173C35.6074 22.4173 35.6786 26.8872 35.6786 30.3727V44.9993H44.9878Z" fill="white"/>
<path d="M0.742676 14.9575H10.0725V45.0001H0.742676V14.9575Z" fill="white"/>
<path d="M5.40365 0C2.42058 0 0 2.42058 0 5.40365C0 8.38672 2.42058 10.8579 5.40365 10.8579C8.38672 10.8579 10.8073 8.38672 10.8073 5.40365C10.8054 2.42058 8.38484 0 5.40365 0V0Z" fill="white"/>
</svg>
