<svg width="47" height="45" viewBox="0 0 47 45" fill="none" xmlns="http://www.w3.org/2000/svg">
<path d="M23.4779 0C10.5064 0 0 10.3303 0 23.071C0 33.2662 6.72642 41.912 16.053 44.9602C17.2269 45.1774 17.6573 44.4632 17.6573 43.8509C17.6573 43.303 17.6378 41.8513 17.628 39.9281C11.0972 41.3192 9.71985 36.8329 9.71985 36.8329C8.65161 34.1701 7.10794 33.458 7.10794 33.458C4.98123 32.0278 7.27228 32.0571 7.27228 32.0571C9.62986 32.2176 10.8683 34.4343 10.8683 34.4343C12.9618 37.9618 16.3641 36.9425 17.7063 36.3536C17.9176 34.8608 18.5221 33.8454 19.1932 33.2682C13.9791 32.691 8.499 30.7072 8.499 21.8677C8.499 19.3497 9.40877 17.2915 10.9153 15.6774C10.6511 15.0943 9.85877 12.7485 11.1207 9.57116C11.1207 9.57116 13.087 8.95291 17.5771 11.9366C19.4554 11.424 21.451 11.1696 23.4466 11.1579C25.4422 11.1696 27.4379 11.424 29.3161 11.9366C33.7769 8.95291 35.7432 9.57116 35.7432 9.57116C37.0051 12.7485 36.2127 15.0943 35.9779 15.6774C37.4747 17.2915 38.3844 19.3497 38.3844 21.8677C38.3844 30.7306 32.8965 32.6813 27.6726 33.2486C28.4944 33.9412 29.2574 35.3558 29.2574 37.5177C29.2574 40.605 29.228 43.0859 29.228 43.8352C29.228 44.4398 29.6389 45.1617 30.8421 44.9309C40.2353 41.9022 46.9558 33.2506 46.9558 23.071C46.9558 10.3303 36.4436 0 23.4779 0V0Z" fill="white"/>
</svg>
