<svg width="30" height="30" viewBox="0 0 30 30" fill="none" xmlns="http://www.w3.org/2000/svg">
<g clip-path="url(#clip0)">
<path d="M11.5001 0C11.7771 0 12.0001 0.223 12.0001 0.5V4.5C12.0001 4.777 11.7771 5 11.5001 5C11.2231 5 11.0001 4.777 11.0001 4.5V0.5C11.0001 0.223 11.2231 0 11.5001 0ZM16.5001 0C16.7771 0 17.0001 0.223 17.0001 0.5V4.5C17.0001 4.777 16.7771 5 16.5001 5C16.2231 5 16.0001 4.777 16.0001 4.5V0.5C16.0001 0.223 16.2231 0 16.5001 0ZM6.50005 0C6.77705 0 7.00005 0.223 7.00005 0.5V4.5C7.00005 4.777 6.77705 5 6.50005 5C6.22305 5 6.00005 4.777 6.00005 4.5V0.5C6.00005 0.223 6.22305 0 6.50005 0ZM3.50005 9H19.5001C19.7771 9 20.0001 9.223 20.0001 9.5C20.0001 9.777 19.7771 10 19.5001 10H3.50005C3.22305 10 3.00005 9.777 3.00005 9.5C3.00005 9.223 3.22305 9 3.50005 9ZM24.5001 8C23.8401 8 23.8481 9 24.5001 9H25.5001C27.4401 9 29.0001 10.56 29.0001 12.5C29.0001 14.44 27.4401 16 25.5001 16H24.5001C23.8431 16 23.8441 17 24.5001 17H25.5001C27.9801 17 30.0001 14.98 30.0001 12.5C30.0001 10.02 27.9801 8 25.5001 8H24.5001ZM0.500052 6C0.224052 6.004 -0.00394816 6.224 5.18426e-05 6.5V18.5C5.18426e-05 23.19 2.79805 27.21 6.81605 29H0.500052C0.223052 29 5.18426e-05 29.223 5.18426e-05 29.5C5.18426e-05 29.777 0.223052 30 0.500052 30H22.5001C22.7771 30 23.0001 29.777 23.0001 29.5C23.0001 29.223 22.7771 29 22.5001 29H16.1841C20.2021 27.21 23.0001 23.19 23.0001 18.5V6.5C23.0001 5.848 22.0001 5.83 22.0001 6.5V18.5C22.0001 24.326 17.3261 29 11.5001 29C5.67405 29 1.00005 24.326 1.00005 18.5V6.5C1.00405 6.218 0.782052 5.996 0.500052 6Z" fill="#00BFA6"/>
</g>
<defs>
<clipPath id="clip0">
<rect width="30" height="30" fill="white"/>
</clipPath>
</defs>
</svg>
