<svg width="30" height="30" viewBox="0 0 30 30" fill="none" xmlns="http://www.w3.org/2000/svg">
<path d="M23.5 4C23.946 4 24.17 4.543 23.85 4.854L22.855 5.847C22.408 6.313 21.689 5.59 22.153 5.145L23.146 4.151C23.24 4.056 23.366 4.001 23.5 4.001V4ZM6.5 4C6.054 4 5.83 4.543 6.15 4.854L7.145 5.847C7.592 6.313 8.315 5.594 7.847 5.145L6.854 4.151C6.76 4.056 6.634 4 6.5 4ZM10.5 29H18.5C18.777 29 19 29.223 19 29.5C19 29.777 18.777 30 18.5 30H10.5C10.223 30 10 29.777 10 29.5C10 29.223 10.223 29 10.5 29ZM10.5 26H18.5C18.777 26 19 26.223 19 26.5C19 26.777 18.777 27 18.5 27H10.5C10.223 27 10 26.777 10 26.5C10 26.223 10.223 26 10.5 26ZM14.5 6C12.652 6 11.004 7.065 9.85 8.7C8.695 10.338 8 12.558 8 15C8 17.443 8.695 19.663 9.85 21.3C11.004 22.935 12.652 24 14.5 24C16.348 24 17.996 22.935 19.15 21.3C20.305 19.662 21 17.442 21 15C21 12.557 20.305 10.337 19.15 8.7C17.996 7.066 16.348 6 14.5 6ZM14.5 7C15.965 7 17.317 7.837 18.334 9.277C19.35 10.717 20 12.747 20 15C20 17.252 19.35 19.282 18.334 20.723C17.677 21.653 16.877 22.327 16 22.691C15.99 21.501 15.972 20.394 16.145 19.478C16.343 18.418 16.753 17.598 17.77 16.923C18.19 16.653 17.998 16 17.5 16.001C17.4 16.001 17.305 16.031 17.223 16.087C15.985 16.911 15.399 18.059 15.168 19.292C14.952 20.442 14.992 21.684 15 22.965C14.76 23.002 14.265 23.002 14 22.965C14.008 21.685 14.048 20.443 13.832 19.293C13.602 18.061 13.015 16.913 11.777 16.089C11.695 16.03 11.6 16 11.5 16C11.002 16 10.81 16.653 11.23 16.922C12.247 17.598 12.657 18.417 12.855 19.477C13.028 20.393 13.009 21.501 13 22.691C12.123 22.328 11.323 21.654 10.666 20.724C9.65 19.283 9 17.253 9 15C9 12.748 9.65 10.718 10.666 9.277C11.683 7.837 13.036 7 14.5 7ZM24.5 14H26.5C26.777 14 27 14.223 27 14.5C27 14.777 26.777 15 26.5 15H24.5C24.223 15 24 14.777 24 14.5C24 14.223 24.223 14 24.5 14ZM15 0.5V2.5C15 2.777 14.777 3 14.5 3C14.223 3 14 2.777 14 2.5V0.5C14 0.223 14.223 0 14.5 0C14.777 0 15 0.223 15 0.5ZM2.5 14H4.5C4.777 14 5 14.223 5 14.5C5 14.777 4.777 15 4.5 15H2.5C2.223 15 2 14.777 2 14.5C2 14.223 2.223 14 2.5 14Z" fill="#00BFA6"/>
</svg>
