<svg width="54" height="45" viewBox="0 0 54 45" fill="none" xmlns="http://www.w3.org/2000/svg">
<path d="M17.7633 43.2108C17.7633 44.7548 16.6059 45.3924 15.3241 44.7548L1.48842 37.8392C1.07077 37.6415 0.719773 37.3105 0.433197 36.8462C0.146621 36.3819 0 35.9198 0 35.4644V1.63727C0 0.375448 0.757539 -0.195483 2.47033 0.657582L17.6744 8.25519C17.8944 8.47512 17.7322 6.96448 17.7633 43.2108V43.2108ZM19.6671 11.3986L35.5555 37.0972L19.6671 29.2041V11.3986ZM53.3165 11.934V43.2108C53.3165 43.7062 53.1788 44.1061 52.8989 44.4127C52.6212 44.7193 52.2436 44.8726 51.7681 44.8726C51.2927 44.8726 50.8262 44.7437 50.3708 44.486L37.2505 37.9569L53.3165 11.934ZM53.2277 8.37293C53.2277 8.43291 50.684 12.5827 45.5968 20.8201C40.5095 29.0575 37.5282 33.8827 36.6551 35.2867L25.0521 16.4726L34.6913 0.835304C35.2156 -0.0266469 36.2908 -0.17771 37.0128 0.182176L53.1099 8.19521C53.1877 8.23297 53.2277 8.29296 53.2277 8.37293V8.37293Z" fill="white"/>
</svg>
