<svg width="30" height="30" viewBox="0 0 30 30" fill="none" xmlns="http://www.w3.org/2000/svg">
<g clip-path="url(#clip0)">
<path d="M29.5001 0C29.3621 0 29.2441 0.05 29.1461 0.146L12.1461 17.146C11.9261 17.366 11.7811 17.383 11.5461 17.354C11.3131 17.324 11.0141 17.192 10.7161 17.049L1.39107 12.549C1.11707 12.415 1.00307 12.219 1.00107 11.999C0.999074 11.779 1.07607 11.569 1.34707 11.469L24.6731 2.969C25.3301 2.729 24.8551 1.836 24.3291 2.029L1.00307 10.529C0.355074 10.764 -0.00592639 11.41 7.36132e-05 12C0.00607361 12.59 0.346074 13.156 0.957074 13.45L10.2831 17.95C10.5861 18.097 10.9671 18.288 11.4231 18.346C11.8771 18.404 12.4311 18.276 12.8531 17.854L28.2121 2.496L18.2481 28.896C18.1681 29.096 17.7651 29.074 17.6641 28.852L12.9501 19.28C12.6501 18.67 11.7981 19.206 12.0501 19.72L16.7661 29.293C17.0141 29.797 17.5361 30.009 18.0001 30C18.4651 29.99 18.9861 29.766 19.1821 29.248L29.9701 0.676C30.0901 0.356 29.8431 0.003 29.5001 0Z" fill="#00BFA6"/>
</g>
<defs>
<clipPath id="clip0">
<rect width="30" height="30" fill="white"/>
</clipPath>
</defs>
</svg>
