<svg width="30" height="30" viewBox="0 0 30 30" fill="none" xmlns="http://www.w3.org/2000/svg">
<path d="M6.49 26C6.36 26.004 6.237 26.057 6.147 26.15L5.153 27.144C4.665 27.614 5.387 28.334 5.856 27.847L6.85 26.853C7.174 26.537 6.948 26 6.49 26V26ZM3.49 26C3.36 26.004 3.237 26.057 3.147 26.15L2.153 27.144C1.665 27.614 2.387 28.334 2.856 27.847L3.85 26.853C4.174 26.537 3.937 26 3.49 26V26ZM3.49 23C3.36 23.004 3.237 23.057 3.147 23.15L2.153 24.144C1.665 24.614 2.387 25.334 2.856 24.847L3.85 23.853C4.174 23.537 3.942 23 3.49 23V23ZM6.5 19C6.225 19.004 5.997 19.225 6 19.5V20C6 22.203 7.797 24 10 24H10.5C11.18 24 11.14 23 10.5 23H10C8.337 23 7 21.663 7 20V19.5C7.003 19.218 6.78 18.996 6.5 19ZM21 5C18.797 5 17 6.797 17 9C17 11.203 18.797 13 21 13C23.203 13 25 11.203 25 9C25 6.797 23.203 5 21 5ZM21 6C22.663 6 24 7.337 24 9C24 10.663 22.663 12 21 12C19.337 12 18 10.663 18 9C18 7.337 19.337 6 21 6ZM27.307 0.0230001C26.489 -0.0319999 25.517 0.0560001 24.441 0.271C22.289 0.701 19.714 1.645 17.251 3.067C12.32 5.913 8.844 10.23 6.047 16.29C5.537 17.396 4.037 19.068 2.834 19.703C2.232 20.021 1.794 20.057 1.544 19.898C1.293 19.74 1 19.228 1 18C1 16.883 1.48 15.023 2.145 13.514C2.477 12.759 2.855 12.084 3.213 11.629C3.571 11.172 3.903 10.999 4 10.999C4.264 10.999 4.407 11.069 4.535 11.185C4.665 11.299 4.769 11.475 4.845 11.675C4.993 12.072 5 12.499 5 12.499C4.99 13.175 6.01 13.175 6 12.499C6 12.499 6.007 11.926 5.78 11.323C5.668 11.023 5.493 10.699 5.2 10.438C4.906 10.178 4.486 9.998 4 9.998C3.347 9.998 2.867 10.45 2.428 11.01C1.988 11.57 1.586 12.3 1.23 13.11C0.52 14.726 0 16.616 0 18C0 19.384 0.313 20.302 1.008 20.742C1.703 21.182 2.548 20.986 3.301 20.588C4.809 19.793 6.311 18.104 6.954 16.708C9.693 10.77 13.02 6.665 17.75 3.935C20.117 2.568 22.61 1.658 24.637 1.253C25.65 1.051 26.547 0.976 27.237 1.023C27.927 1.069 28.387 1.255 28.567 1.435C28.747 1.615 28.932 2.073 28.979 2.763C29.024 3.453 28.949 4.351 28.747 5.363C28.342 7.391 27.432 9.883 26.065 12.251C23.335 16.981 19.229 20.307 13.29 23.048C11.896 23.692 10.207 25.193 9.412 26.7C9.014 27.453 8.817 28.297 9.258 28.992C9.698 29.687 10.618 30 12 30C13.383 30 15.273 29.48 16.89 28.77C17.697 28.414 18.43 28.01 18.988 27.572C19.548 27.132 20 26.652 20 26C20 25.514 19.82 25.094 19.56 24.8C19.3 24.507 18.977 24.332 18.676 24.22C18.073 23.993 17.5 24 17.5 24C16.824 23.99 16.824 25.01 17.5 25C17.5 25 17.927 25.007 18.324 25.156C18.524 25.231 18.7 25.336 18.814 25.466C18.929 25.593 19 25.736 19 26C19 26.097 18.827 26.43 18.37 26.787C17.915 27.145 17.24 27.523 16.486 27.855C14.976 28.52 13.116 29 12 29C10.77 29 10.26 28.707 10.102 28.457C9.942 28.207 9.979 27.767 10.297 27.167C10.932 25.962 12.604 24.463 13.709 23.953C19.769 21.156 24.086 17.68 26.933 12.75C28.355 10.287 29.298 7.712 29.728 5.56C29.942 4.482 30.03 3.51 29.975 2.693C29.919 1.876 29.735 1.191 29.271 0.727C28.807 0.262 28.121 0.0790001 27.305 0.0230001H27.307Z" fill="#00BFA6"/>
</svg>
